<mxfile host="65bd71144e">
    <diagram id="DyHL7l8ZMHNntXRDee9p" name="第 1 页">
        <mxGraphModel dx="590" dy="481" grid="0" gridSize="10" guides="1" tooltips="1" connect="1" arrows="1" fold="1" page="1" pageScale="1" pageWidth="827" pageHeight="1169" math="0" shadow="0">
            <root>
                <mxCell id="0"/>
                <mxCell id="1" parent="0"/>
                <mxCell id="2" value="人民币资产价格重估" style="rounded=1;whiteSpace=wrap;html=1;fontStyle=1;fillColor=#FF0000;fontColor=#FFFFFF;fontSize=16;" parent="1" vertex="1">
                    <mxGeometry x="100" y="140" width="530" height="50" as="geometry"/>
                </mxCell>
                <mxCell id="4" value="房地产暂稳" style="rounded=1;whiteSpace=wrap;html=1;fontStyle=1;fillColor=#CC6600;fontColor=#FFFFFF;fontSize=16;" parent="1" vertex="1">
                    <mxGeometry x="100" y="70" width="250" height="50" as="geometry"/>
                </mxCell>
                <mxCell id="5" value="核心科技突破" style="rounded=1;whiteSpace=wrap;html=1;fontStyle=1;fillColor=#CC6600;fontColor=#FFFFFF;fontSize=16;" parent="1" vertex="1">
                    <mxGeometry x="380" y="70" width="250" height="50" as="geometry"/>
                </mxCell>
                <mxCell id="6" value="化债" style="ellipse;whiteSpace=wrap;html=1;aspect=fixed;fontStyle=1;fillColor=#fff2cc;strokeColor=#d6b656;" parent="1" vertex="1">
                    <mxGeometry x="100" y="210" width="80" height="80" as="geometry"/>
                </mxCell>
                <mxCell id="7" value="走出通缩" style="ellipse;whiteSpace=wrap;html=1;aspect=fixed;fontStyle=1;fillColor=#fff2cc;strokeColor=#d6b656;" parent="1" vertex="1">
                    <mxGeometry x="213" y="210" width="80" height="80" as="geometry"/>
                </mxCell>
                <mxCell id="8" value="推动&lt;br&gt;科创投资" style="ellipse;whiteSpace=wrap;html=1;aspect=fixed;fontStyle=1;fillColor=#fff2cc;strokeColor=#d6b656;" parent="1" vertex="1">
                    <mxGeometry x="325" y="210" width="80" height="80" as="geometry"/>
                </mxCell>
                <mxCell id="9" value="对抗&lt;br&gt;美元潮汐" style="ellipse;whiteSpace=wrap;html=1;aspect=fixed;fontStyle=1;fillColor=#fff2cc;strokeColor=#d6b656;" parent="1" vertex="1">
                    <mxGeometry x="438" y="210" width="80" height="80" as="geometry"/>
                </mxCell>
                <mxCell id="10" value="&lt;span style=&quot;color: rgb(0, 0, 0);&quot;&gt;人民币&lt;/span&gt;&lt;br&gt;&lt;span style=&quot;color: rgb(0, 0, 0);&quot;&gt;国际化&lt;/span&gt;" style="ellipse;whiteSpace=wrap;html=1;aspect=fixed;fontStyle=1;fillColor=#fff2cc;strokeColor=#d6b656;" parent="1" vertex="1">
                    <mxGeometry x="550" y="210" width="80" height="80" as="geometry"/>
                </mxCell>
                <mxCell id="11" value="&lt;h1 style=&quot;margin-top: 0px;&quot;&gt;科技&lt;/h1&gt;&lt;p&gt;&lt;font style=&quot;font-size: 16px;&quot;&gt;AI 应用与端侧、人形机器人、出海高端制造等等。&lt;/font&gt;&lt;/p&gt;" style="text;html=1;whiteSpace=wrap;overflow=hidden;rounded=0;" parent="1" vertex="1">
                    <mxGeometry x="100" y="330" width="250" height="120" as="geometry"/>
                </mxCell>
                <mxCell id="12" value="&lt;h1 style=&quot;margin-top: 0px;&quot;&gt;消费/内需&lt;/h1&gt;&lt;p&gt;&lt;span style=&quot;font-size: 16px;&quot;&gt;休闲食品、白酒反弹、免税消费等等。&lt;/span&gt;&lt;/p&gt;" style="text;html=1;whiteSpace=wrap;overflow=hidden;rounded=0;" parent="1" vertex="1">
                    <mxGeometry x="380" y="330" width="250" height="120" as="geometry"/>
                </mxCell>
            </root>
        </mxGraphModel>
    </diagram>
</mxfile>